{"title":"Pineapple.Express[2008].BRRip.720p.x264.[Dual Audio]by K@rtik [E","uid":7485237,"size":764046495,"categoryP":"video","categoryS":"hd___movies","magnet":"?xt=urn:btih:cc2bab478f79fc0cb283824f0d7ebe7ea51df49a&amp;dn=Pineapple.Express%5B2008%5D.BRRip.720p.x264.%5BDual+Audio%5Dby+K%40rtik+%5BE&amp;tr=udp%3A%2F%2Ftracker.openbittorrent.com%3A80&amp;tr=udp%3A%2F%2Fopen.demonii.com%3A1337&amp;tr=udp%3A%2F%2Ftracker.coppersurfer.tk%3A6969&amp;tr=udp%3A%2F%2Fexodus.desync.com%3A6969","seeders":0,"leechers":2,"uploader":"TeamExD","files":4,"time":1343521252,"description":"Format                                   : Matroska\nFormat                          :2\nFile size                                : 719 MiB\nDuration                                 : 1h 56mn\nbit rate mode                    :bit rate                         : 861 Kbps\nname                               : Pineapple.Express[2008].Unrated.BRRip.720p.x264.[Dual Audio] [Hindi+English].by K@rtik [ExD\nEncoded date                             : UTC 2012-07-28 19:47:58\n\nFormat                                   :\nFormat settings, ReFrames                : 4 frames\nDuration                                 : 1h 56mn\nBit rate                                 : 588 Kbps\nNominal bit rate                         : 647 Kbps\nWidth                                    : 1 280 pixels\nHeight                                   : 560 pixels\nDisplay aspect ratio                     : 2.25:1\nTitle                                    : K@rtik\nWriting library                          : x264 core 125 r2200 999b753\n\nFormat                                   : AC-3\nCodec ID                                 : A_AC3\nDuration                                 : 1h 56mn\nBit rate                                 : 224 Kbps\nChannel(s)                               : 2 channels\nSampling rate                            : 48.0 KHz\nBit depth                                : 16 bits\nCompression mode                         : Lossy\nDelayto                 : 7s 500ms\nStream size                              : 187 MiB (26%)\nTitle                                    : K@rtik\nLanguage                                 : Hindi\nFormat                                   : MPEG Audio\nCodec ID                                 : A_MPEG/L3\nDuration                                 : 1h 52mn\nBit rate mode                            :\nBit rate                                 : 32.0 Kbps\nChannel(s)                               : 1 channel\nSampling rate                            : 22.05 KHz\nCompression mode                         : Lossy\nStream size                              : 25.7 MiB (4%)\nTitle                                    : K@rtik &lt;a href=&quot;\nhttp://img685.imageshack.us/img685/5332/91718063.png&quot; rel=&quot;nofollow&quot; target=&quot;_NEW&quot;&gt;\nhttp://img685.imageshack.us/img685/5332/91718063.png&lt;/a&gt; &lt;a href=&quot;\nhttp://img39.imageshack.us/img39/3517/23771395.png&quot; rel=&quot;nofollow&quot; target=&quot;_NEW&quot;&gt;\nhttp://img39.imageshack.us/img39/3517/23771395.png&lt;/a&gt; &lt;a href=&quot;\nhttp://img51.imageshack.us/img51/7679/32045333.png&quot; rel=&quot;nofollow&quot; target=&quot;_NEW&quot;&gt;\nhttp://img51.imageshack.us/img51/7679/32045333.png&lt;/a&gt; &lt;a href=&quot;\nhttp://img860.imageshack.us/img860/778/15924387.png&quot; rel=&quot;nofollow&quot; target=&quot;_NEW&quot;&gt;\nhttp://img860.imageshack.us/img860/778/15924387.png&lt;/a&gt; &lt;a href=&quot;\nhttp://img402.imageshack.us/img402/6716/75259401.png&quot; rel=&quot;nofollow&quot; target=&quot;_NEW&quot;&gt;\nhttp://img402.imageshack.us/img402/6716/75259401.png&lt;/a&gt; &lt;a href=&quot;\nhttp://img827.imageshack.us/img827/2853/18733737.png&quot; rel=&quot;nofollow&quot; target=&quot;_NEW&quot;&gt;\nhttp://img827.imageshack.us/img827/2853/18733737.png&lt;/a&gt; &lt;a href=&quot;\nhttp://img809.imageshack.us/img809/4963/58111273.png&quot; rel=&quot;nofollow&quot; target=&quot;_NEW&quot;&gt;\nhttp://img809.imageshack.us/img809/4963/58111273.png&lt;/a&gt; &lt;a href=&quot;\nhttp://img585.imageshack.us/img585/3039/46581760.png&quot; rel=&quot;nofollow&quot; target=&quot;_NEW&quot;&gt;\nhttp://img585.imageshack.us/img585/3039/46581760.png&lt;/a&gt; &lt;a href=&quot;\nhttp://img26.imageshack.us/img26/5831/76133504.png&quot; rel=&quot;nofollow&quot; target=&quot;_NEW&quot;&gt;\nhttp://img26.imageshack.us/img26/5831/76133504.png&lt;/a&gt; &lt;a href=&quot;\nhttp://img684.imageshack.us/img684/6206/64150312.png&quot; rel=&quot;nofollow&quot; target=&quot;_NEW&quot;&gt;\nhttp://img684.imageshack.us/img684/6206/64150312.png&lt;/a&gt;","torrent":{"xt":"urn:btih:cc2bab478f79fc0cb283824f0d7ebe7ea51df49a","amp;dn":"Pineapple.Express%5B2008%5D.BRRip.720p.x264.%5BDual+Audio%5Dby+K%40rtik+%5BE","amp;tr":["udp%3A%2F%2Ftracker.openbittorrent.com%3A80","udp%3A%2F%2Fopen.demonii.com%3A1337","udp%3A%2F%2Ftracker.coppersurfer.tk%3A6969","udp%3A%2F%2Fexodus.desync.com%3A6969"],"infoHash":"cc2bab478f79fc0cb283824f0d7ebe7ea51df49a","infoHashBuffer":{"type":"Buffer","data":[204,43,171,71,143,121,252,12,178,131,130,79,13,126,190,126,165,29,244,154]},"announce":[],"urlList":[]}}